<svg id="Группа_2" data-name="Группа 2" xmlns="http://www.w3.org/2000/svg" width="906" height="1807" viewBox="0 0 906 1807">
  <metadata><?xpacket begin="﻿" id="W5M0MpCehiHzreSzNTczkc9d"?>
<x:xmpmeta xmlns:x="adobe:ns:meta/" x:xmptk="Adobe XMP Core 5.6-c138 79.159824, 2016/09/14-01:09:01        ">
   <rdf:RDF xmlns:rdf="http://www.w3.org/1999/02/22-rdf-syntax-ns#">
      <rdf:Description rdf:about=""/>
   </rdf:RDF>
</x:xmpmeta>
                                                                                                    
                                                                                                    
                                                                                                    
                                                                                                    
                                                                                                    
                                                                                                    
                                                                                                    
                                                                                                    
                                                                                                    
                                                                                                    
                                                                                                    
                                                                                                    
                                                                                                    
                                                                                                    
                                                                                                    
                                                                                                    
                                                                                                    
                                                                                                    
                                                                                                    
                                                                                                    
                           
<?xpacket end="w"?></metadata>
<defs>
    <style>
      .cls-1 {
        fill: #585858;
      }

      .cls-1, .cls-2 {
        fill-rule: evenodd;
      }

      .cls-2 {
        fill: #2c2c2c;
      }
    </style>
  </defs>
  <path id="Прямоугольник_скругл._углы_2" data-name="Прямоугольник, скругл. углы 2" class="cls-1" d="M1784.88,4367.51c169.06,24.26,316.89,101.9,425.3,89.57,61.16-7.35,92.51,27.87,89.91,130.09-5.65,242.93-1.08,489.04,12.93,745.45,15.12,252.07,46.46,520.08,126.68,712.16q3.255,7.26,5.64,13.9c0.79,2.21,1.51,4.38,2.16,6.49s1.22,4.19,1.72,6.21a89.369,89.369,0,0,1,2.11,11.59c0.21,1.85.33,3.65,0.39,5.42,0.03,0.88.03,1.75,0.02,2.61s-0.04,1.72-.08,2.57c-0.77,13.5-6.38,24.71-16.85,34.4-20.81,18.93-61.53,33.56-116.83,34.33-97.95.8-199.52,3.87-297.44,6.2-48.95,1.15-96.95,2.04-142.94,2.27q-8.625.045-17.16,0.06t-16.95-.01q-16.845-.045-33.24-0.23c-21.86-.25-43.08-0.7-63.54-1.4-90.11-3.4-142.06-88.55-142.7-183.24,5.41-465.22,6.01-950.77,6.1-1438.53-0.08-49.64,20.31-98.32,52.37-132.73,16.03-17.21,34.99-30.85,55.75-39.27a128.329,128.329,0,0,1,32.38-8.49q4.17-.525,8.42-0.76c1.41-.07,2.83-0.13,4.25-0.16,0.71-.01,1.42-0.02,2.14-0.02s1.42,0.01,2.14.02a123.522,123.522,0,0,1,17.32,1.5h0Z" transform="translate(-1604 -4364)"/>
  <path id="iso_black" data-name="iso black" class="cls-2" d="M1613.03,4513.93l-0.09,10.62c5.4-11.22,15.58-23.72,32.62-37.94,9.04-7.55,17.25-12.37,24.71-15.1,3.23-28.04,14.62-52.59,31.74-71.45a113.442,113.442,0,0,1,66.38-36.04c-0.29,0-.58-0.01-0.86-0.01s-0.58-.01-0.87-0.01c-0.58,0-1.15.01-1.73,0.02q-1.74.03-3.48,0.12c-2.32.11-4.64,0.31-6.98,0.59a116.664,116.664,0,0,0-14,2.53q-3.495.855-6.98,1.91c-2.33.7-4.64,1.48-6.95,2.31q-6.93,2.505-13.72,5.76a187.9,187.9,0,0,0-49.89,35.4c-29.42,29.02-49.53,65.84-49.9,101.29h0Zm-0.16,18.46q-0.09,10.35-.17,20.69c5.35-13.67,17.36-29.23,37.96-46.09a94.327,94.327,0,0,1,18.65-12.22c0.01-2.36.01-4.71,0.01-7.07,0-4.32.21-8.55,0.59-12.72-7.11,2.58-14.89,7.14-23.41,14.23-19.43,16.18-29.13,30.25-33.63,43.18h0Zm-8.49,1416.76c5.59-8.53,16.43-16.25,34.8-24.03a77.237,77.237,0,0,1,27.78-6.6c12.65-463.67.49-937.69,2.35-1420.44a88.254,88.254,0,0,0-17.7,11.53c-23.27,19.02-34.75,36.8-38.98,52.51q-0.615,86.16-1.17,171.49-0.555,85.41-1.08,170.39c-0.69,113.41-1.32,226.64-1.9,340.77-1.17,228.27-2.11,460.23-4.1,704.38h0Zm24.91-922.1c7.89-1.54,14.33,2.59,14.33,9.48q-0.165,87.39-.31,174.56c0,6.86-6.66,13.2-14.84,13.84s-14.75-4.55-14.71-11.31q0.615-86.01,1.23-171.77c0.04-6.74,6.41-13.25,14.3-14.8h0Zm0.35-289.76c7.46-3.14,16.8.28,16.79,7.22q-0.54,51.51-1.06,102.83c0,6.92-6.26,14.64-13.93,17.06s-17.03-2.1-16.98-8.84q0.81-50.13,1.61-100.45c0.06-6.76,6.1-14.67,13.57-17.82h0Zm-13.05,116.21c-0.06,5.62,5.03,8.64,11.42,6.62s11.64-8.42,11.67-14.15q0.36-50.385.74-100.92c0.04-5.75-5.03-8.21-11.28-5.58s-11.33,9.24-11.39,14.87q-0.585,49.665-1.16,99.16h0Zm-0.55,358.58c-0.05,5.62,5.42,9.9,12.26,9.34s12.42-5.81,12.45-11.5q-0.03-86.415-.06-172.92c0.03-5.72-5.33-9.17-11.92-7.88s-11.96,6.73-12.02,12.34q-0.375,85.23-.71,170.62h0Zm15.91-5.23c2.17,1.83,2.01,5.09-.38,7.25s-6.08,2.38-8.24.5-1.99-5.1.39-7.21,6.06-2.37,8.23-.54h0Zm-27.61,750.66q-0.075,11.745-.12,23.53c5.56-11.04,17.85-21.13,39.2-30.89a81.473,81.473,0,0,1,22.61-6.89q0.42-10.755.81-21.51a72.667,72.667,0,0,0-26.67,6.32c-21.55,9.2-31.58,18.54-35.83,29.44h0Zm-0.17,32.92c-0.01,2.89-.03,5.79-0.04,8.68-0.01,1.28,0,2.56.02,3.83s0.06,2.56.11,3.83c0.1,2.56.25,5.11,0.46,7.67,0.42,5.1,1.04,10.2,1.86,15.26a211.919,211.919,0,0,0,7.04,29.73,197.912,197.912,0,0,0,24.69,52c20.53,30.13,47.93,48.15,84.69,52.1,23.49,2.64,48.31,4.41,74.47,5.57q9.81,0.45,19.85.76,5.025,0.165,10.11.3c1.69,0.05,3.39.09,5.09,0.13l5.13,0.12c1.71,0.04,3.43.07,5.15,0.11l5.17,0.09q5.19,0.09,10.44.16,10.485,0.135,21.17.19t21.54,0.04q10.86,0,21.87-.08,22.035-.135,44.57-0.43c30.02-.36,60.56-0.81,91.17-1.02,121.69-2.38,245.24-1.4,325.73-12.15a91.424,91.424,0,0,0,19.76-5.3,95.607,95.607,0,0,0,8.96-4.06c1.44-.74,2.85-1.52,4.24-2.32s2.76-1.64,4.1-2.49c10.74-6.88,19.91-15.39,28.16-24.26,16.11-18.02,30.59-36.08,39.71-51.23-19.04,22.08-38.33,49.7-80.81,55.22-72.89,6.66-183.3,2.45-294.28,3.81-111.87.12-225.97,4.61-322.61-3.8-39.63-3.11-70.61-22.22-92.61-52.49-21.94-29.85-35.15-71.22-33.78-109.18,0.2-4.92.41-9.84,0.6-14.76a76.328,76.328,0,0,0-21.52,6.59c-24.63,11.35-36.04,23.54-40.21,37.38h0Zm788.18,151.08c5.16-1.68,8.7-1.24,8.16,1.02s-4.9,5.56-10.01,7.35-9.06,1.3-8.56-1.06,5.26-5.62,10.41-7.31h0Zm-24.91,2.75c5.67-1.56,9.67-.91,9.16,1.48s-5.3,5.69-10.95,7.35-10.01.98-9.52-1.5,5.65-5.76,11.31-7.33h0Zm-27.26,2.01c6.13-1.48,10.51-.65,10.01,1.86s-5.7,5.81-11.83,7.37-10.84.74-10.33-1.85,6.04-5.9,12.15-7.38h0Zm-29.27,1.45c6.52-1.43,11.23-.46,10.71,2.15s-6.1,5.95-12.65,7.45-11.55.55-11-2.14,6.42-6.03,12.94-7.46h0Zm-30.99,1.06c6.87-1.41,11.84-.34,11.28,2.37s-6.5,6.08-13.41,7.54-12.16.42-11.54-2.34,6.81-6.17,13.67-7.57h0Zm-32.41.81c7.16-1.4,12.34-.26,11.71,2.53s-6.88,6.2-14.12,7.65-12.65.34-11.94-2.49,7.18-6.29,14.35-7.69h0Zm-70.86.59c7.65-1.44,13.09-.21,12.27,2.7s-7.68,6.44-15.43,7.91-13.35.28-12.43-2.66,7.95-6.51,15.59-7.95h0Zm-160.11.5a53.2,53.2,0,0,1,22.86-7.36c33.76-.65,67.64-1.29,100.94-1.78,0.36-.01.71,0.01,1.05,0.02a0.265,0.265,0,0,0-.06.05,11.268,11.268,0,0,1,4.45.68c4.51,1.52,6.58,5.23,2.41,10.03-5.58,6.45-20.64,12.48-28.78,12.74-33.05.55-66.57,1.14-99.84,1.68-7.18.22-15.06-2.81-12.31-8.03-0.06.1,1.75-3.62,9.28-8.03h0Zm-37.43.05c8.06-1.49,13.39-.23,11.91,2.82s-9.31,6.74-17.48,8.24-13.49.23-11.9-2.82,9.41-6.74,17.47-8.24h0Zm-91.42-.51c7.81-1.36,12.79.01,11.06,3.09s-9.58,6.71-17.46,8.09-12.76-.03-10.96-3.13,9.54-6.68,17.36-8.05h0Zm-33.43-.22c7.66-1.28,12.47.16,10.68,3.26s-9.56,6.68-17.27,7.99-12.38-.2-10.54-3.31,9.48-6.66,17.13-7.94h0Zm-32.47-.71c7.46-1.18,12.1.36,10.27,3.48s-9.48,6.66-16.97,7.87-11.96-.39-10.1-3.54,9.34-6.63,16.8-7.81h0Zm-31.42-1.29c7.24-1.06,11.7.59,9.84,3.74s-9.32,6.63-16.56,7.73-11.51-.63-9.66-3.82,9.14-6.59,16.38-7.65h0Zm-30.33-2.01c7.01-.92,11.28.87,9.44,4.06s-9.1,6.61-16.08,7.59-11.07-.92-9.25-4.16,8.88-6.57,15.89-7.49h0Zm-29.24-2.83c6.77-.76,10.88,1.2,9.07,4.44s-8.83,6.59-15.54,7.41-10.63-1.25-8.88-4.56,8.58-6.54,15.35-7.29h0Zm289.42,21.02c31.85-.34,63.94-0.73,95.64-1.07,14.43-1.02,24.94-6.58,30.56-13.04,2.15-2.48.61-5.77-3.63-6.67a22.169,22.169,0,0,0-2.99-.45c-6.53,5.78-19.03,10.41-26.33,10.62-32.69.46-65.75,0.99-98.54,1.47a16.456,16.456,0,0,1-1.98.13c-5.62,6.18-.61,9.25,7.27,9.01h0Zm278.82-1721.85c-123.98,4.34-298-39.35-489.75-75.16a127.705,127.705,0,0,0-14.24-1.85c-1.17-.08-2.33-0.15-3.49-0.21s-2.31-.08-3.46-0.1c-2.3-.04-4.57-0.02-6.83.08a113.06,113.06,0,0,0-25.93,4.04,107.439,107.439,0,0,0-43.44,23.91c-24.49,22.2-39.37,55.28-39.43,94.64-2.28,501.25,12.24,993.28-4,1471.97-1.41,37.85,11.76,79.03,33.74,108.76,22.03,30.14,53.15,49.17,92.86,52.25,95.92,8.15,208.56,3.7,319.02,3.53,109.61-1.36,218.7,2.81,292.08-3.03,30.12-2.72,47.36-16.69,62.55-30.74,14.52-14.65,27.16-29.38,32.3-46.98a320.009,320.009,0,0,0,7.3-49.12q0.54-6.885.91-14.15t0.56-14.9c0.06-2.54.11-5.12,0.14-7.72s0.06-5.24.07-7.91v-4.03c-0.01-1.35-.01-2.71-0.02-4.07q-0.03-4.095-.11-8.28c-0.75-44.62-5.03-97.31-11.73-156.61-13.46-118.45-36-263.14-57.47-407.82-41.35-292.24-87.34-566.77-72.02-805.55q0.255-3.54.42-6.99c0.11-2.3.18-4.57,0.23-6.81q0.135-6.735-.1-13.11a198.035,198.035,0,0,0-2.27-23.95c-2.4-14.91-6.43-27.65-12.12-38.04-11.33-20.67-29.61-32.6-55.77-32.05h0Zm-121.79,97.55c-5.7-.38-11.07,5.61-11.86,13.45s3.25,14.48,8.88,14.77,10.78-5.81,11.64-13.56-2.96-14.28-8.66-14.66h0Zm-102.27-66.08c-4.69-.79-8.9,3.29-9.33,9.14s3.03,11.21,7.67,11.97,8.73-3.37,9.21-9.18-2.86-11.14-7.55-11.93h0Zm21.09,1503.5c-38.16.7-68.68,26.94-67.56,57.62,0.98,30.8,37.15,54.63,79.77,54.41,42.55-.28,70.79-23.88,65.49-54.95-5.32-31.16-39.51-57.85-77.7-57.08h0Zm-0.37,8.84c-32.54.53-58.35,23.03-57.11,49.47,1.15,26.51,31.75,47.12,67.55,46.94,35.77-.22,59.93-20.79,55.59-47.54-4.33-26.79-33.45-49.45-66.03-48.87h0Zm28.86-1442.26c-35.04-4.27-72.23-10.41-111.69-17.96-7.27-1.33-5.82,9.39-5.69,5.73,0.06-2.03-2.01,5.76,5.22,7.08,39.27,7.44,76.27,13.42,111.13,17.52,6.68,0.71,5.85-9.5,5.59-6.35-0.21,2.33,2.16-5.27-4.56-6.02h0Z" transform="translate(-1604 -4364)"/>
</svg>
